<?xml version="1.0" encoding="UTF-8"?>
<svg id="Capa_1" data-name="Capa 1" xmlns="http://www.w3.org/2000/svg" viewBox="0 0 512 512">
  <path d="M51.27,95.18c27.94-59.06,42.57-48.25,82.94-6.95,3.87,3.96,18.48,23.16,26.15,32.03,2.42,2.8,6.3,3.87,9.82,2.72,41.13-13.46,82.14-16.24,125.31-10.18,13.05,1.83,41.29,11.61,49.15,11.75,14.39.26,64.79-91.72,96.21-65.75,12.5,10.33,32.04,62.73,36.99,79.94,18.4,63.97,22.13,127.23,11.8,183.17-.75,4.03,5.15,5.43,6.27,1.49,18.68-65.82,17.16-143.88-5.59-222.95-5.23-18.18-25.86-73.51-39.07-84.43-33.19-27.43-86.42,69.73-101.62,69.45-8.3-.15-38.13-10.48-51.92-12.41-45.6-6.4-88.91-3.47-132.36,10.75-3.72,1.22-7.82.09-10.37-2.87-8.1-9.37-23.53-29.65-27.62-33.83C84.73,3.47,69.27-7.94,39.76,54.44,2.97,132.21-8.24,235.77,16.34,323.11c1.11,3.95,7.03,2.59,6.28-1.45-14.16-76.15-2.34-160.98,28.65-226.48Z"/>
  <path d="M213.65,441.79l124.18-117.57c3.02-2.86.8-6.39-4.98-7.91l-72.3-19.03-69.19,140.41c-3.34,6.77,15.77,10.29,22.3,4.1Z"/>
  <path d="M302.83,162.5l-128.3,105.12c-3.53,2.89-1.42,6.64,4.62,8.23l81.38,21.42,64.23-130.35c3.23-6.56-14.87-10.21-21.94-4.42Z"/>
</svg>